<svg width="392" height="192" viewBox="0 0 392 192" fill="none" xmlns="http://www.w3.org/2000/svg">
<path d="M249.075 107.492L247.967 107.248C245.422 106.695 243.542 106.737 241.839 107.218C240.138 107.702 238.68 108.635 237.533 109.981C236.386 111.328 235.562 113.017 235.006 115.563L234.074 121.169C233.518 123.716 233.56 125.596 234.045 127.297C234.526 129 235.458 130.458 236.808 131.603C238.154 132.75 239.843 133.574 242.39 134.13L243.499 134.374C246.045 134.93 247.926 134.888 249.626 134.404C251.33 133.922 252.79 132.987 253.937 131.641C255.079 130.294 255.906 128.603 256.462 126.056L257.393 120.455C257.949 117.908 257.907 116.028 257.423 114.327C256.941 112.624 256.007 111.164 254.66 110.017C253.311 108.872 251.622 108.047 249.075 107.492Z" stroke="black" stroke-width="6.66205" stroke-linejoin="round"/>
<path d="M249.079 107.491L247.968 107.249C245.423 106.693 243.543 106.736 241.842 107.218C240.139 107.701 238.68 108.634 237.533 109.982C236.388 111.329 235.563 113.018 235.007 115.564L234.075 121.169C233.519 123.715 233.562 125.595 234.045 127.296C234.528 128.999 235.461 130.458 236.809 131.604C238.156 132.75 239.845 133.575 242.391 134.131L243.501 134.373C246.046 134.929 247.927 134.886 249.628 134.404C251.33 133.921 252.79 132.988 253.936 131.64C255.082 130.293 255.907 128.604 256.463 126.058L257.394 120.453C257.95 117.907 257.907 116.027 257.424 114.326C256.941 112.624 256.009 111.164 254.661 110.018C253.314 108.872 251.624 108.047 249.079 107.491Z" fill="#E6E0E0"/>
<path d="M251.298 91.973C257.354 93.1867 261.277 99.0752 260.064 105.13L257.332 118.794L235.409 114.406L238.143 100.741C239.354 94.6878 245.243 90.7639 251.298 91.973Z" stroke="black" stroke-width="6.66205" stroke-linejoin="round"/>
<path d="M251.297 91.9745C257.351 93.1864 261.276 99.0758 260.064 105.13L257.329 118.794L235.407 114.406L238.142 100.742C239.353 94.6877 245.243 90.7627 251.297 91.9745Z" fill="#BFBDBD"/>
<path d="M266.638 81.4056C271.474 85.4873 272.084 92.7186 268.002 97.5549L261.075 106.301C256.993 111.137 249.765 111.749 244.926 107.665C240.089 103.583 239.475 96.3535 243.556 91.5171L250.487 82.773C254.569 77.9367 261.799 77.3222 266.638 81.4056Z" stroke="black" stroke-width="6.66205" stroke-linejoin="round"/>
<path d="M266.637 81.4058C271.475 85.4882 272.087 92.7179 268.005 97.5555L261.076 106.299C256.993 111.137 249.764 111.749 244.926 107.666C240.089 103.584 239.477 96.3544 243.559 91.5168L250.488 82.7731C254.57 77.9355 261.8 77.3234 266.637 81.4058Z" fill="#BFBDBD"/>
<path d="M249.079 107.491L247.968 107.249C245.423 106.693 243.543 106.736 241.842 107.218C240.139 107.701 238.68 108.634 237.533 109.982C236.388 111.329 235.563 113.018 235.007 115.564L234.075 121.169C233.519 123.715 233.562 125.595 234.045 127.296C234.528 128.999 235.461 130.458 236.809 131.604C238.156 132.75 239.845 133.575 242.391 134.131L243.501 134.373C246.046 134.929 247.927 134.886 249.628 134.404C251.33 133.921 252.79 132.988 253.936 131.64C255.082 130.293 255.907 128.604 256.463 126.058L257.394 120.453C257.95 117.907 257.907 116.027 257.424 114.326C256.941 112.624 256.009 111.164 254.661 110.018C253.314 108.872 251.624 108.047 249.079 107.491Z" fill="white"/>
<path d="M251.06 127.359L251.208 126.788" stroke="white" stroke-width="6.99515" stroke-linecap="round"/>
<path d="M247.703 127.794L246.211 134.628" stroke="black" stroke-width="3.66413" stroke-linecap="round"/>
<path d="M240.66 126.729L239.245 133.601L240.66 126.729Z" fill="white"/>
<path d="M240.66 126.729L239.245 133.601" stroke="black" stroke-width="3.66413" stroke-linecap="round"/>
<path d="M251.297 91.9745C257.351 93.1864 261.276 99.0758 260.064 105.13L257.329 118.794L235.407 114.406L238.142 100.742C239.353 94.6877 245.243 90.7627 251.297 91.9745Z" fill="white"/>
<path d="M266.637 81.4058C271.475 85.4882 272.087 92.7179 268.005 97.5555L261.076 106.299C256.993 111.137 249.764 111.749 244.926 107.666C240.089 103.584 239.477 96.3544 243.559 91.5168L250.488 82.7731C254.57 77.9355 261.8 77.3234 266.637 81.4058Z" fill="white"/>
<path d="M234.31 114.747L258.586 119.684L234.31 114.747Z" fill="white"/>
<path d="M234.31 114.747L258.586 119.684" stroke="black" stroke-width="3.66413" stroke-linecap="round" stroke-linejoin="round"/>
<path d="M247.377 166.148L252.85 153.736L278.458 139.734C281.397 138.13 283.664 136.006 285.2 133.561C286.74 131.12 287.549 128.356 287.574 125.47C287.595 122.584 286.834 119.576 285.227 116.637C283.62 113.698 281.495 111.431 279.054 109.891C276.613 108.355 275.984 110.693 273.095 110.672C270.212 110.651 267.201 111.412 264.261 113.019L229.216 132.176L247.377 166.148Z" stroke="black" stroke-width="6.66205" stroke-linejoin="round"/>
<path d="M247.377 166.146L252.85 153.735L278.459 139.734C281.396 138.129 283.663 136.005 285.201 133.562C286.74 131.119 287.549 128.357 287.573 125.47C287.594 122.584 286.833 119.576 285.226 116.636C283.62 113.698 281.496 111.431 279.056 109.891C276.613 108.353 275.984 110.694 273.097 110.67C270.211 110.649 267.2 111.411 264.263 113.017L229.216 132.178L247.377 166.146Z" fill="white"/>
<path d="M284.086 136.644C290.313 129.624 289.67 118.889 282.651 112.662L266.703 98.5147C259.683 92.2877 248.948 92.9302 242.721 99.9498C236.494 106.969 239.289 115.984 246.308 122.211L262.256 136.358C269.276 142.585 277.859 143.663 284.086 136.644Z" stroke="black" stroke-width="6.66205" stroke-linejoin="round"/>
<path d="M284.086 136.644C290.313 129.624 289.67 118.889 282.651 112.662L266.703 98.5147C259.683 92.2877 248.948 92.9302 242.721 99.9498C236.494 106.969 239.289 115.984 246.308 122.211L262.256 136.358C269.276 142.585 277.859 143.663 284.086 136.644Z" fill="white"/>
<path d="M247.377 166.146L252.85 153.735L278.459 139.734C281.396 138.129 283.663 136.005 285.201 133.562C286.74 131.119 287.549 128.357 287.573 125.47C287.594 122.584 286.833 119.576 285.226 116.636C283.62 113.698 281.496 111.431 279.056 109.891C276.613 108.353 275.984 110.694 273.097 110.67C270.211 110.649 267.2 111.411 264.263 113.017L229.216 132.178L247.377 166.146Z" fill="white"/>
<path d="M234.878 143.143C234.878 143.143 259.31 129.044 263.914 126.672C266.738 125.216 269.34 121.245 265.911 117.471C262.482 113.697 255.533 117.883 255.533 117.883L229.239 132.147L234.878 143.143Z" fill="#E1DCDC"/>
<path d="M239.658 148.409C245.113 158.02 248.467 166.433 247.143 167.184C245.819 167.935 240.315 160.743 234.86 151.132C229.405 141.522 226.051 133.109 227.375 132.357C228.698 131.606 234.202 138.799 239.658 148.409Z" fill="#1896A4"/>
<path d="M239.658 148.409C245.113 158.02 248.467 166.433 247.143 167.184C245.819 167.935 240.315 160.743 234.86 151.132C229.405 141.522 226.051 133.109 227.375 132.357C228.698 131.606 234.202 138.799 239.658 148.409Z" stroke="black" stroke-width="3.30752"/>
<path d="M284.086 136.644C290.313 129.624 289.67 118.889 282.651 112.662L266.703 98.5147C259.683 92.2877 248.948 92.9302 242.721 99.9498C236.494 106.969 239.289 115.984 246.308 122.211L262.256 136.358C269.276 142.585 277.859 143.663 284.086 136.644Z" fill="white"/>
<path d="M279.393 177.175L278.192 163.666L293.853 139.038C295.649 136.211 296.608 133.257 296.776 130.375C296.941 127.491 296.316 124.682 294.944 122.144C293.568 119.608 291.447 117.341 288.622 115.542C285.795 113.746 282.841 112.787 279.96 112.616C277.079 112.452 277.656 114.804 275.119 116.176C272.583 117.553 270.313 119.672 268.517 122.499L247.084 156.202L279.393 177.175Z" stroke="black" stroke-width="6.66205" stroke-linejoin="round"/>
<path d="M279.395 177.176L278.193 163.665L293.854 139.036C295.65 136.211 296.609 133.257 296.776 130.374C296.943 127.492 296.317 124.683 294.944 122.144C293.569 119.607 291.45 117.34 288.622 115.542C285.797 113.746 282.842 112.787 279.962 112.617C277.08 112.45 277.659 114.804 275.12 116.177C272.584 117.553 270.315 119.674 268.518 122.499L247.086 156.205L279.395 177.176Z" fill="white"/>
<path d="M255.114 98.0232C247.855 103.968 246.789 114.671 252.734 121.929L266.241 138.425C272.185 145.683 281.781 147.55 289.039 141.605C296.302 135.658 297.367 124.958 291.423 117.697L279.023 100.404C273.075 93.1445 262.375 92.0797 255.114 98.0232Z" stroke="black" stroke-width="6.66205" stroke-linejoin="round"/>
<path d="M255.114 98.0229C247.854 103.968 246.789 114.67 252.734 121.93L266.24 138.424C272.185 145.684 281.781 147.549 289.041 141.604C296.301 135.659 297.367 124.957 291.422 117.697L279.021 100.404C273.076 93.1436 262.374 92.0779 255.114 98.0229Z" fill="white"/>
<path d="M279.96 75.532C288.59 81.4877 290.76 93.3116 284.807 101.943L273.771 118.74C267.816 127.37 255.992 129.54 247.36 123.587C238.728 117.633 236.56 105.807 242.514 97.1751L253.551 80.3806C259.505 71.7488 271.328 69.5786 279.96 75.532Z" stroke="black" stroke-width="6.66205"/>
<path d="M279.961 75.533C288.592 81.4876 290.762 93.312 284.808 101.943L273.771 118.739C267.816 127.371 255.992 129.541 247.361 123.586C238.729 117.632 236.559 105.807 242.514 97.1758L253.55 80.3798C259.505 71.7484 271.329 69.5784 279.961 75.533Z" fill="#E1DCDC"/>
<path d="M278.541 73.9686C288.15 78.1668 292.536 89.36 288.338 98.9689L280.709 117.562C276.511 127.171 269.478 122.432 259.869 118.234C250.26 114.036 248.842 99.3334 253.04 89.7244L253.54 83.7656C257.739 74.1567 268.932 69.7703 278.541 73.9686Z" fill="white"/>
<path d="M279.395 177.176L278.193 163.665L293.854 139.036C295.65 136.211 296.609 133.257 296.776 130.374C296.943 127.492 296.317 124.683 294.944 122.144C293.569 119.607 291.45 117.34 288.622 115.542C285.797 113.746 282.842 112.787 279.962 112.617C277.08 112.45 277.659 114.804 275.12 116.177C272.584 117.553 270.315 119.674 268.518 122.499L247.086 156.205L279.395 177.176Z" fill="white"/>
<path d="M255.114 98.0229C247.854 103.968 246.789 114.67 252.734 121.93L266.24 138.424C272.185 145.684 281.781 147.549 289.041 141.604C296.301 135.659 297.367 124.957 291.422 117.697L279.021 100.404C273.076 93.1436 262.374 92.0779 255.114 98.0229Z" fill="white"/>
<path d="M249.865 105.484C247.948 110.901 248.827 117.159 252.734 121.93C252.734 121.93 255.429 113.586 256.896 106.599C254.07 104.828 253.363 105.444 249.865 105.484Z" fill="#E1DCDC"/>
<path d="M252.934 109.762C249.873 112.665 245.035 119.182 251.212 126.113L263.889 133.299C266.325 136.818 269.283 138.022 272.725 134.758C276.167 131.494 276.424 127.396 272.973 125.208C268.876 122.739 256.679 122.622 256.486 113.253C256.453 111.659 255.995 106.859 252.934 109.762Z" fill="#E1DCDC"/>
<path d="M257.415 162.988C257.415 162.988 271.712 138.672 274.547 134.338C276.286 131.679 276.591 126.94 271.746 125.349C266.902 123.757 262.922 130.827 262.922 130.827L247.085 156.204L257.415 162.988Z" fill="#E1DCDC"/>
<path d="M263.161 132.45C257.357 133.351 247.324 126.633 248.558 116.538L263.161 132.45Z" fill="#E1DCDC"/>
<path d="M263.161 132.45C257.357 133.351 247.324 126.633 248.558 116.538" stroke="black" stroke-width="3.30752" stroke-linecap="round"/>
<path d="M265.355 163.705C274.842 169.944 281.294 176.912 279.752 179.256C278.211 181.6 269.256 178.438 259.769 172.199C250.281 165.96 243.83 158.991 245.371 156.647C246.913 154.303 255.867 157.466 265.355 163.705Z" fill="#1896A4"/>
<path d="M265.355 163.705C274.842 169.944 281.294 176.912 279.752 179.256C278.211 181.6 269.256 178.438 259.769 172.199C250.281 165.96 243.83 158.991 245.371 156.647C246.913 154.303 255.867 157.466 265.355 163.705Z" stroke="black" stroke-width="3.30752"/>
<path d="M280.259 109.645L247.614 101.394L280.259 109.645Z" fill="white"/>
<path d="M280.259 109.645L247.614 101.394" stroke="black" stroke-width="3.66413" stroke-linecap="round" stroke-linejoin="round"/>
<path d="M308.975 36.0828C307.001 35.7899 305.159 35.982 303.547 36.5914C301.936 37.2007 300.552 38.2232 299.496 39.5878C298.445 40.9504 297.721 42.6552 297.425 44.6282L297.051 47.1392C296.755 49.1122 296.947 50.9543 297.555 52.5691C298.165 54.1809 299.187 55.5643 300.553 56.617C301.917 57.6729 303.622 58.3969 305.596 58.6898C307.569 58.9859 309.411 58.7938 311.023 58.1844C312.635 57.575 314.018 56.5526 315.074 55.188C316.127 53.8222 316.851 52.1174 317.147 50.1444L317.521 47.6334C317.817 45.6604 317.625 43.8184 317.015 42.2066C316.406 40.5949 315.383 39.2115 314.019 38.1556C312.653 37.1029 310.948 36.3788 308.975 36.0828Z" fill="white"/>
<path d="M308.975 36.0828C307.001 35.7899 305.159 35.982 303.547 36.5914C301.936 37.2007 300.552 38.2232 299.496 39.5878C298.445 40.9504 297.721 42.6552 297.425 44.6282L297.051 47.1392C296.755 49.1122 296.947 50.9543 297.555 52.5691C298.165 54.1809 299.187 55.5643 300.553 56.617C301.917 57.6729 303.622 58.3969 305.596 58.6898C307.569 58.9859 309.411 58.7938 311.023 58.1844C312.635 57.575 314.018 56.5526 315.074 55.188C316.127 53.8222 316.851 52.1174 317.147 50.1444L317.521 47.6334C317.817 45.6604 317.625 43.8184 317.015 42.2066C316.406 40.5949 315.383 39.2115 314.019 38.1556C312.653 37.1029 310.948 36.3788 308.975 36.0828Z" stroke="black" stroke-width="3.33102"/>
<path d="M287.225 7.43798L287.426 7.39843C297.313 8.1795 303.611 10.2726 308.951 13.6911C314.288 17.1116 318.319 21.833 320.859 27.6413C323.402 33.4507 324.483 39.9965 323.705 49.8843L323.265 55.4672C322.487 65.355 320.391 71.6518 316.972 76.9926C313.552 82.3292 308.833 86.3614 303.025 88.9015C297.275 91.4163 290.805 92.5028 281.092 91.7692L280.579 91.7829C270.692 91.005 264.394 88.9119 259.054 85.4902C253.717 82.0697 249.685 77.3514 247.145 71.5431C244.629 65.7964 243.546 59.3274 244.276 49.6137L244.739 43.7172C245.522 33.8275 247.614 27.5326 251.032 22.1918C254.454 16.8521 259.174 12.8242 264.983 10.2809C270.792 7.74087 277.338 6.66005 287.225 7.43798Z" stroke="black" stroke-width="6.66205" stroke-linecap="round" stroke-linejoin="round"/>
<path d="M287.225 7.43798L287.426 7.39843C297.313 8.1795 303.611 10.2726 308.951 13.6911C314.288 17.1116 318.319 21.833 320.859 27.6413C323.402 33.4507 324.483 39.9965 323.705 49.8843L323.265 55.4672C322.487 65.355 320.391 71.6518 316.972 76.9926C313.552 82.3292 308.833 86.3614 303.025 88.9015C297.275 91.4163 290.805 92.5028 281.092 91.7692L280.579 91.7829C270.692 91.005 264.394 88.9119 259.054 85.4902C253.717 82.0697 249.685 77.3514 247.145 71.5431C244.629 65.7964 243.546 59.3274 244.276 49.6137L244.739 43.7172C245.522 33.8275 247.614 27.5326 251.032 22.1918C254.454 16.8521 259.174 12.8242 264.983 10.2809C270.792 7.74087 277.338 6.66005 287.225 7.43798Z" fill="white"/>
<path d="M287.154 7.35164C287.154 7.35164 264.989 7.70692 261.769 48.7996C258.981 84.386 280.508 91.6965 280.508 91.6965C270.621 90.9186 264.323 88.8255 258.983 85.4039C253.646 81.9834 249.614 77.2651 247.074 71.4568C244.558 65.7101 243.475 59.2411 244.205 49.5274L244.668 43.6309C245.451 33.7411 247.543 27.4463 250.961 22.1055C254.383 16.7658 259.103 12.7378 264.912 10.1946C270.721 7.65453 277.267 6.57371 287.154 7.35164Z" fill="#E1DCDC"/>
<path d="M262.246 86.0836L263.276 86.5163C265.361 87.3419 266.029 87.86 266.631 88.5677C267.234 89.2757 267.596 90.1117 267.701 91.0347L267.715 91.1518C267.797 92.012 267.697 92.8469 266.954 94.7483L260.382 111.178C259.558 113.26 259.039 113.928 258.332 114.528C257.624 115.129 256.787 115.49 255.863 115.594L255.687 115.612C254.846 115.684 254.005 115.571 252.145 114.844L251.115 114.412C249.03 113.586 248.362 113.068 247.759 112.36C247.157 111.652 249.021 111.698 248.992 110.805L246.675 109.776C246.593 108.916 246.694 108.081 247.436 106.18L254.009 89.7496C254.833 87.6677 255.352 87.0001 256.059 86.4001C256.767 85.7989 257.603 85.4377 258.527 85.334L258.704 85.316C259.544 85.2436 260.386 85.3571 262.246 86.0836Z" fill="white"/>
<path d="M262.246 86.0836L263.276 86.5163C265.361 87.3419 266.029 87.86 266.631 88.5677C267.234 89.2757 267.596 90.1117 267.701 91.0347L267.715 91.1518C267.797 92.012 267.697 92.8469 266.954 94.7483L260.382 111.178C259.558 113.26 259.039 113.928 258.332 114.528C257.624 115.129 256.787 115.49 255.863 115.594L255.687 115.612C254.846 115.684 254.005 115.571 252.145 114.844L251.115 114.412C249.03 113.586 248.362 113.068 247.759 112.36C247.157 111.652 249.021 111.698 248.992 110.805L246.675 109.776C246.593 108.916 246.694 108.081 247.436 106.18L254.009 89.7496C254.833 87.6677 255.352 87.0001 256.059 86.4001C256.767 85.7989 257.603 85.4377 258.527 85.334L258.704 85.316C259.544 85.2436 260.386 85.3571 262.246 86.0836Z" stroke="black" stroke-width="3.45446" stroke-linejoin="round"/>
<path d="M262.452 86.1768L263.51 86.6275C265.512 87.42 266.15 87.9262 266.722 88.6217C267.294 89.3177 267.632 90.1442 267.721 91.0608L267.736 91.2357C267.798 92.0878 267.669 92.9454 266.897 94.8959L264.759 100.295L252.311 95.3345L254.449 89.9357C255.273 87.8538 255.783 87.1827 256.474 86.5763C257.166 85.9687 257.979 85.5981 258.872 85.4823L259.042 85.4619C259.855 85.3782 260.666 85.4798 262.452 86.1768Z" fill="white"/>
<path d="M262.452 86.1768L263.51 86.6275C265.512 87.42 266.15 87.9262 266.722 88.6217C267.294 89.3177 267.632 90.1442 267.721 91.0608L267.736 91.2357C267.798 92.0878 267.669 92.9454 266.897 94.8959L264.759 100.295L252.311 95.3345L254.449 89.9357C255.273 87.8538 255.783 87.1827 256.474 86.5763C257.166 85.9687 257.979 85.5981 258.872 85.4823L259.042 85.4619C259.855 85.3782 260.666 85.4798 262.452 86.1768Z" stroke="black" stroke-width="3.45446" stroke-linejoin="round"/>
<path d="M251.484 81.6152L255.249 83.3744C257.331 84.1987 258.001 84.7142 258.599 85.4235C259.2 86.1312 259.562 86.9667 259.666 87.8895L259.68 88.0067C259.762 88.8666 259.661 89.7014 258.918 91.6028L252.353 108.013C251.529 110.095 251.013 110.766 250.304 111.363C249.596 111.965 248.761 112.326 247.838 112.43L247.662 112.448C246.822 112.521 245.982 112.408 244.124 111.683L240.36 109.923C238.278 109.099 237.607 108.584 237.01 107.874C236.409 107.167 236.047 106.331 235.943 105.408L235.929 105.291C235.847 104.431 235.948 103.596 236.69 101.695L243.256 85.2847C244.08 83.2029 244.595 82.5322 245.305 81.9349C246.012 81.3335 246.848 80.9719 247.771 80.8678L247.947 80.8497C248.786 80.7768 249.626 80.8899 251.484 81.6152Z" fill="#E1DCDC"/>
<path d="M251.484 81.6152L255.249 83.3744C257.331 84.1987 258.001 84.7142 258.599 85.4235C259.2 86.1312 259.562 86.9667 259.666 87.8895L259.68 88.0067C259.762 88.8666 259.661 89.7014 258.918 91.6028L252.353 108.013C251.529 110.095 251.013 110.766 250.304 111.363C249.596 111.965 248.761 112.326 247.838 112.43L247.662 112.448C246.822 112.521 245.982 112.408 244.124 111.683L240.36 109.923C238.278 109.099 237.607 108.584 237.01 107.874C236.409 107.167 236.047 106.331 235.943 105.408L235.929 105.291C235.847 104.431 235.948 103.596 236.69 101.695L243.256 85.2847C244.08 83.2029 244.595 82.5322 245.305 81.9349C246.012 81.3335 246.848 80.9719 247.771 80.8678L247.947 80.8497C248.786 80.7768 249.626 80.8899 251.484 81.6152Z" stroke="black" stroke-width="3.45446" stroke-linejoin="round"/>
<path d="M246 97C168 81 141 -21 2.00001 74.9999" stroke="black" stroke-width="3.14042" stroke-linecap="round"/>
<path d="M304.433 16.9319C308.021 18.8297 311.064 21.3784 313.493 24.5153L304.433 16.9319Z" fill="white"/>
<path d="M304.433 16.9319C308.021 18.8297 311.064 21.3784 313.493 24.5153" stroke="black" stroke-width="3.66413" stroke-linecap="round"/>
<path d="M261.931 27.4519C259.88 27.2806 258.004 27.5863 256.398 28.2953C254.792 29.0043 253.452 30.1113 252.478 31.5428C251.508 32.9708 250.901 34.721 250.755 36.7131L250.573 39.2482C250.427 41.2404 250.769 43.0722 251.525 44.6494C252.28 46.2243 253.443 47.5427 254.928 48.5144C256.413 49.4865 258.222 50.1024 260.272 50.2771C262.322 50.4517 267.138 50.3376 268.744 49.6286C270.35 48.9196 271.692 47.8133 272.664 46.3812C273.635 44.9499 274.242 43.1998 274.388 41.2076L274.57 38.6725C274.716 36.6803 274.371 34.8493 273.616 33.2744C272.861 31.6995 271.702 30.3758 270.215 29.4063C268.728 28.4373 263.981 27.6231 261.931 27.4519Z" fill="#E1DCDC"/>
<path d="M261.931 27.4519C259.88 27.2806 258.004 27.5863 256.398 28.2953C254.792 29.0043 253.452 30.1113 252.478 31.5428C251.508 32.9708 250.901 34.721 250.755 36.7131L250.573 39.2482C250.427 41.2404 250.769 43.0722 251.525 44.6494C252.28 46.2243 253.443 47.5427 254.928 48.5144C256.413 49.4865 258.222 50.1024 260.272 50.2771C262.322 50.4517 267.138 50.3376 268.744 49.6286C270.35 48.9196 271.692 47.8133 272.664 46.3812C273.635 44.9499 274.242 43.1998 274.388 41.2076L274.57 38.6725C274.716 36.6803 274.371 34.8493 273.616 33.2744C272.861 31.6995 271.702 30.3758 270.215 29.4063C268.728 28.4373 263.981 27.6231 261.931 27.4519Z" stroke="black" stroke-width="3.33102"/>
<path d="M261.115 37.3174L260.871 40.103" stroke="white" stroke-width="9.32687" stroke-linecap="round" stroke-linejoin="round"/>
<path d="M304.488 33.1163L304.505 33.1296C309.386 33.4121 313.105 34.5488 316.163 36.4595C319.218 38.3682 321.536 41.0443 323.012 44.3743C324.487 47.7002 325.127 51.6008 324.786 56.5681L324.163 61.0518C323.823 66.0191 322.654 69.8155 320.733 72.9492C318.814 76.0803 316.149 78.4761 312.854 80.0185C309.559 81.561 305.716 82.2654 300.83 81.9847L300.562 81.8264C295.676 81.5457 291.956 80.4105 288.902 78.4996C285.846 76.5867 283.53 73.9094 282.054 70.5815C280.579 67.2557 279.979 62.4981 280.389 55.6418C280.457 55.5169 280.625 53.9023 280.625 53.9023C280.968 48.9364 282.412 45.1409 284.333 42.0067C286.252 38.8756 288.916 36.483 292.212 34.9373C295.504 33.3934 299.605 32.8369 304.488 33.1163Z" fill="white"/>
<path d="M304.488 33.1163L304.505 33.1296C309.386 33.4121 313.105 34.5488 316.163 36.4595C319.218 38.3682 321.536 41.0443 323.012 44.3743C324.487 47.7002 325.127 51.6008 324.786 56.5681L324.163 61.0518C323.823 66.0191 322.654 69.8155 320.733 72.9492C318.814 76.0803 316.149 78.4761 312.854 80.0185C309.559 81.561 305.716 82.2654 300.83 81.9847L300.562 81.8264C295.676 81.5457 291.956 80.4105 288.902 78.4996C285.846 76.5867 283.53 73.9094 282.054 70.5815C280.579 67.2557 279.979 62.4981 280.389 55.6418C280.457 55.5169 280.625 53.9023 280.625 53.9023C280.968 48.9364 282.412 45.1409 284.333 42.0067C286.252 38.8756 288.916 36.483 292.212 34.9373C295.504 33.3934 299.605 32.8369 304.488 33.1163Z" stroke="black" stroke-width="3.33102" stroke-linecap="round" stroke-linejoin="round"/>
<path d="M301.194 54.853C300.679 53.2728 299.567 51.8882 297.971 51.0683C296.022 50.0672 293.801 50.1414 291.991 51.0765C290.825 51.6791 289.828 52.6372 289.182 53.8932" stroke="black" stroke-width="3.14346" stroke-linecap="round" stroke-linejoin="round"/>
<path d="M293.846 42.2811L302.465 44.4149" stroke="black" stroke-width="3.33101" stroke-linecap="round"/>
<path d="M317.106 57.0164C318.116 55.6966 319.625 54.7598 321.402 54.5161C321.752 54.4681 322.099 54.4489 322.441 54.4564" stroke="black" stroke-width="3.14346" stroke-linecap="round" stroke-linejoin="round"/>
<path d="M323.587 47.712C322.643 47.3894 321.988 47.1657 321.988 47.1657" stroke="black" stroke-width="3.33101" stroke-linecap="round"/>
<path d="M305.539 59.8871C306.203 62.9103 311.452 63.0426 312.538 60.4518" stroke="black" stroke-width="3.33101" stroke-linecap="round"/>
<path d="M305.579 110.969L305.574 112.104C305.57 114.708 306.007 116.537 306.837 118.101C307.668 119.661 308.887 120.89 310.445 121.727C312.004 122.564 313.828 123.015 316.435 123.021L322.111 122.75C324.717 122.757 326.547 122.32 328.107 121.488C329.671 120.658 330.899 119.439 331.734 117.879C332.571 116.321 333.021 114.496 333.028 111.89L333.032 110.755C333.039 108.148 332.602 106.319 331.77 104.758C330.94 103.195 329.719 101.964 328.161 101.127C326.603 100.294 324.776 99.8422 322.17 99.8356L316.498 100.106C313.891 100.099 312.062 100.537 310.501 101.368C308.938 102.198 307.707 103.419 306.87 104.978C306.036 106.538 305.585 108.362 305.579 110.969Z" stroke="black" stroke-width="6.66205" stroke-linejoin="round"/>
<path d="M305.579 110.967L305.576 112.103C305.569 114.709 306.007 116.538 306.837 118.099C307.668 119.661 308.888 120.891 310.447 121.728C312.005 122.564 313.83 123.014 316.436 123.021L322.111 122.751C324.717 122.757 326.546 122.319 328.107 121.489C329.67 120.658 330.9 119.438 331.736 117.879C332.572 116.321 333.023 114.495 333.03 111.89L333.033 110.754C333.039 108.148 332.601 106.319 331.771 104.758C330.94 103.195 329.72 101.965 328.161 101.129C326.603 100.293 324.778 99.8424 322.172 99.8355L316.497 100.106C313.891 100.099 312.062 100.538 310.501 101.368C308.939 102.199 307.708 103.418 306.872 104.978C306.036 106.536 305.586 108.361 305.579 110.967Z" fill="white"/>
<path d="M289.717 111.313C289.843 105.139 294.946 100.237 301.12 100.363L315.051 100.64L314.603 122.993L300.669 122.714C294.497 122.591 289.596 117.487 289.717 111.313Z" stroke="black" stroke-width="6.66205" stroke-linejoin="round"/>
<path d="M289.719 111.314C289.843 105.141 294.947 100.238 301.12 100.362L315.053 100.642L314.603 122.995L300.671 122.715C294.498 122.591 289.595 117.487 289.719 111.314Z" fill="white"/>
<path d="M290.814 93.9161C292.745 93.9898 294.681 94.5503 296.438 95.6454L306.085 101.25C311.456 104.597 313.096 111.664 309.747 117.038C306.399 122.408 299.332 124.051 293.961 120.704L284.315 115.096C278.944 111.749 277.302 104.681 280.65 99.3071C282.903 95.6931 286.842 93.7672 290.814 93.9161Z" stroke="black" stroke-width="6.66205" stroke-linecap="round" stroke-linejoin="round"/>
<path d="M290.816 93.9157C292.745 93.988 294.683 94.5493 296.439 95.6437L306.084 101.25C311.456 104.598 313.097 111.666 309.749 117.038C306.401 122.41 299.333 124.05 293.961 120.702L284.316 115.096C278.944 111.748 277.303 104.68 280.651 99.3083C282.905 95.6923 286.843 93.7669 290.816 93.9157Z" fill="white"/>
<path d="M318.152 103.892C318.152 103.892 319.718 96.5881 319.77 93.1819" stroke="black" stroke-width="13.6572" stroke-linecap="round"/>
<path d="M305.579 110.967L305.576 112.103C305.569 114.709 306.007 116.538 306.837 118.099C307.668 119.661 308.888 120.891 310.447 121.728C312.005 122.564 313.83 123.014 316.436 123.021L322.111 122.751C324.717 122.757 326.546 122.319 328.107 121.489C329.67 120.658 330.9 119.438 331.736 117.879C332.572 116.321 333.023 114.495 333.03 111.89L333.033 110.754C333.039 108.148 332.601 106.319 331.771 104.758C330.94 103.195 329.72 101.965 328.161 101.129C326.603 100.293 324.778 99.8424 322.172 99.8355L316.497 100.106C313.891 100.099 312.062 100.538 310.501 101.368C308.939 102.199 307.708 103.418 306.872 104.978C306.036 106.536 305.586 108.361 305.579 110.967Z" fill="white"/>
<path d="M318.152 103.892C318.152 103.892 319.718 96.5881 319.77 93.1819" stroke="white" stroke-width="6.99515" stroke-linecap="round"/>
<path d="M332.991 117.33L325.976 117.394L332.991 117.33Z" fill="white"/>
<path d="M332.991 117.33L325.976 117.394" stroke="black" stroke-width="3.66413" stroke-linecap="round"/>
<path d="M333.157 110.833L326.162 110.815" stroke="black" stroke-width="3.66413" stroke-linecap="round"/>
<path d="M289.719 111.314C289.843 105.141 294.947 100.238 301.12 100.362L315.053 100.642L314.603 122.995L300.671 122.715C294.498 122.591 289.595 117.487 289.719 111.314Z" fill="white"/>
<path d="M280.651 99.3083C283.999 93.9362 291.067 92.2957 296.439 95.6437L306.084 101.25C311.456 104.598 313.097 111.666 309.749 117.038C306.401 122.41 299.333 124.05 293.961 120.702L284.316 115.096C278.944 111.748 277.303 104.68 280.651 99.3083Z" fill="white"/>
<path d="M305.784 120.885C302.233 122.946 297.688 123.026 293.96 120.702L284.315 115.096C280.569 112.762 278.638 108.618 278.947 104.503C287.16 109.522 300.444 117.627 305.784 120.885Z" fill="#E1DCDC"/>
<path d="M314.353 115.892L314.602 122.995L300.67 122.714C296.511 122.631 290.073 119.536 294.623 114.602C297.145 117.481 314.353 115.892 314.353 115.892Z" fill="#E1DCDC"/>
<path d="M313.7 99.3473L313.826 123.747L313.7 99.3473Z" fill="white"/>
<path d="M313.7 99.3473L313.826 123.747" stroke="black" stroke-width="3.66413" stroke-linecap="round" stroke-linejoin="round"/>
<path d="M334.877 82.2253C337.442 78.7623 341.626 73.1154 345.318 68.1317" stroke="#1896A4" stroke-width="3.675" stroke-linecap="round"/>
<path d="M342.298 90.3773C346.156 88.4565 352.447 85.3243 358 82.56" stroke="#1896A4" stroke-width="3.675" stroke-linecap="round"/>
<path d="M345.787 99.5082C350.078 99.0976 357.073 98.4279 363.248 97.8371" stroke="#1896A4" stroke-width="3.675" stroke-linecap="round"/>
<path d="M345.313 110.693C349.485 111.774 356.288 113.538 362.292 115.094" stroke="#1896A4" stroke-width="3.675" stroke-linecap="round"/>
<path d="M340.605 120.23C344.068 122.796 349.715 126.979 354.699 130.672" stroke="#1896A4" stroke-width="3.675" stroke-linecap="round"/>
</svg>
